# Bero voxelgen

o 

mtllib rabbi.vox.mtl
usemtl palette

# normals
vn 1 0 0
vn -1 0 0
vn 0 1 0
vn 0 -1 0
vn 0 0 1
vn 0 0 -1

# texcoords
vt 0.021484 0.5
vt 0.001953 0.5
vt 0.017578 0.5
vt 0.029297 0.5
vt 0.013672 0.5
vt 0.005859 0.5
vt 0.025391 0.5
vt 0.009766 0.5

# verts
v -0.35 2.1 0.7
v -0.35 2.2 0.7
v -0.35 2.2 0.8
v -0.35 2.1 0.8
v -0.25 2.2 0.7
v -0.25 2.3 0.7
v -0.25 2.3 0.8
v -0.25 2.2 0.8
v 0.15 2 0.7
v 0.15 2.3 0.7
v 0.15 2.3 0.9
v 0.15 2 0.9
v 0.25 0.1 0.8
v 0.25 0.9 0.8
v 0.25 0.9 1
v 0.25 0.1 1
v 0.25 0.9 0.9
v 0.25 1 0.9
v 0.25 1 1
v 0.35 0.9 0.8
v 0.35 1.3 0.8
v 0.35 1.3 0.9
v 0.35 0.9 0.9
v 0.55 1.3 0.8
v 0.55 1.7 0.8
v 0.55 1.7 0.9
v 0.55 1.3 0.9
v 0.55 2.8 -0.5
v 0.55 3.2 -0.5
v 0.55 3.2 0.5
v 0.55 2.8 0.5
v 0.65 2.1 0.7
v 0.65 2.2 0.7
v 0.65 2.2 0.8
v 0.65 2.1 0.8
v 0.75 1.6 -0.8
v 0.75 2.6 -0.8
v 0.75 2.6 -0.3
v 0.75 1.6 -0.3
v 0.75 1.6 0.4
v 0.75 2.6 0.4
v 0.75 2.6 0.5
v 0.75 1.6 0.5
v 0.75 2 0.5
v 0.75 2 0.8
v 0.75 1.6 0.8
v 0.75 2.2 0.5
v 0.75 2.2 0.7
v 0.75 2 0.7
v 0.75 2.6 0.6
v 0.75 2.2 0.6
v 0.75 2.4 0.6
v 0.75 2.4 0.8
v 0.75 2.2 0.8
v 0.75 2.6 0.7
v 0.75 2.4 0.7
v 0.75 2.5 -0.3
v 0.75 2.5 0.4
v 0.95 0 -0.8
v 0.95 1.2 -0.8
v 0.95 1.2 0.8
v 0.95 0 0.8
v 0.95 1.6 -0.8
v 0.95 1.6 -0.3
v 0.95 1.2 -0.3
v 0.95 1.2 0.5
v 0.95 1.6 0.5
v 0.95 1.6 0.8
v 1.05 1.2 0.4
v 1.05 1.6 0.4
v 1.05 1.6 0.5
v 1.05 1.2 0.5
v 1.05 2.4 -0.3
v 1.05 2.5 -0.3
v 1.05 2.5 0.4
v 1.05 2.4 0.4
v 1.15 1.2 -0.3
v 1.15 2.4 -0.3
v 1.15 2.4 0.4
v 1.15 1.2 0.4
v 1.15 2.6 -1
v 1.15 2.8 -1
v 1.15 2.8 1
v 1.15 2.6 1
v -1.15 1.2 -0.3
v -1.15 1.2 0.4
v -1.15 2.4 0.4
v -1.15 2.4 -0.3
v -1.15 2.6 -1
v -1.15 2.6 1
v -1.15 2.8 1
v -1.15 2.8 -1
v -1.05 1.2 0.4
v -1.05 1.2 0.5
v -1.05 1.6 0.5
v -1.05 1.6 0.4
v -1.05 2.4 -0.3
v -1.05 2.4 0.4
v -1.05 2.5 0.4
v -1.05 2.5 -0.3
v -0.95 0 -0.8
v -0.95 0 0.8
v -0.95 1.2 0.8
v -0.95 1.2 -0.8
v -0.95 1.2 -0.3
v -0.95 1.6 -0.3
v -0.95 1.6 -0.8
v -0.95 1.2 0.5
v -0.95 1.6 0.8
v -0.95 1.6 0.5
v -0.75 1.6 -0.8
v -0.75 1.6 -0.3
v -0.75 2.6 -0.3
v -0.75 2.6 -0.8
v -0.75 1.6 0.4
v -0.75 1.6 0.5
v -0.75 2.6 0.5
v -0.75 2.6 0.4
v -0.75 1.6 0.8
v -0.75 2 0.8
v -0.75 2 0.5
v -0.75 2 0.7
v -0.75 2.6 0.7
v -0.75 2.2 0.7
v -0.75 2.2 0.8
v -0.75 2.4 0.8
v -0.75 2.4 0.7
v -0.75 2.5 -0.3
v -0.75 2.5 0.4
v -0.65 2.1 0.7
v -0.65 2.1 0.8
v -0.65 2.2 0.8
v -0.65 2.2 0.7
v -0.55 1.3 0.8
v -0.55 1.3 0.9
v -0.55 1.7 0.9
v -0.55 1.7 0.8
v -0.55 2.8 -0.5
v -0.55 2.8 0.5
v -0.55 3.2 0.5
v -0.55 3.2 -0.5
v -0.35 0.9 0.8
v -0.35 0.9 0.9
v -0.35 1.3 0.9
v -0.35 1.3 0.8
v -0.25 0.1 0.8
v -0.25 0.1 1
v -0.25 0.9 1
v -0.25 0.9 0.8
v -0.25 0.9 0.9
v -0.25 1 1
v -0.25 1 0.9
v -0.15 2 0.7
v -0.15 2 0.9
v -0.15 2.3 0.9
v -0.15 2.3 0.7
v 0.25 2.2 0.7
v 0.25 2.2 0.8
v 0.25 2.3 0.8
v 0.25 2.3 0.7
v 0.35 2.1 0.7
v 0.35 2.1 0.8
v 0.35 2.2 0.8
v 0.35 2.2 0.7
v -0.95 1.6 0.4
v -0.15 2 0.8
v 0.15 2 0.8
v -0.15 2.3 0.8
v 0.15 2.3 0.8
v -0.65 2.4 0.8
v -0.65 2.4 0.7
v -0.25 2.4 0.8
v -0.25 2.4 0.7
v 0.25 2.4 0.8
v 0.25 2.4 0.7
v 0.65 2.4 0.8
v 0.65 2.4 0.7
v -1.15 2.8 -0.5
v 1.15 2.8 -0.5
v -0.55 2.8 1
v 0.55 2.8 1
v -0.95 1.2 0.4
v 0.95 1.2 0.4
v 1.15 2.6 -0.8
v -1.15 2.6 -0.8
v -0.75 2.6 1
v 0.75 2.6 1
v -0.15 2.1 0.7
v -0.75 2.1 0.7
v 0.75 2.1 0.7
v 0.15 2.1 0.7
v -0.15 2.2 0.7
v 0.15 2.2 0.7
v 0.15 2.4 0.7
v 0.15 2.6 0.7
v 0.55 2.4 0.7
v 0.55 2.5 0.7
v 0.15 2.5 0.7
v 0.55 2.6 0.7
v 0.95 0.1 0.8
v -0.95 0.1 0.8
v -0.95 0.9 0.8
v 0.95 0.9 0.8
v -0.95 1.3 0.8
v 0.95 1.3 0.8
v -0.55 1.5 0.8
v -0.95 1.5 0.8
v 0.95 1.5 0.8
v 0.55 1.5 0.8
v -0.75 1.5 0.8
v -0.55 2 0.8
v 0.75 1.5 0.8
v 0.55 2 0.8
v -0.25 1.3 0.9
v 0.25 1.3 0.9
v 0.25 1.1 0.9
v -0.25 1.1 0.9
v 0.25 1.7 0.9
v -0.25 1.7 0.9
v -0.95 1.5 -0.8
v 0.95 1.5 -0.8
v -0.75 1.5 -0.8
v 0.75 1.5 -0.8
v -0.95 2.4 -0.3
v 0.95 2.4 -0.3
v -0.95 2.5 -0.3
v 0.95 2.5 -0.3

# faces
f 1/1/1 2/1/1 3/1/1
f 1/1/1 3/1/1 4/1/1
f 5/2/1 6/2/1 7/2/1
f 5/2/1 7/2/1 8/2/1
f 9/3/1 10/3/1 11/3/1
f 9/3/1 11/3/1 12/3/1
f 13/4/1 14/4/1 15/4/1
f 13/4/1 15/4/1 16/4/1
f 17/4/1 18/4/1 19/4/1
f 17/4/1 19/4/1 15/4/1
f 20/4/1 21/4/1 22/4/1
f 20/4/1 22/4/1 23/4/1
f 24/5/1 25/5/1 26/5/1
f 24/5/1 26/5/1 27/5/1
f 28/2/1 29/2/1 30/2/1
f 28/2/1 30/2/1 31/2/1
f 32/1/1 33/1/1 34/1/1
f 32/1/1 34/1/1 35/1/1
f 36/6/1 37/6/1 38/6/1
f 36/6/1 38/6/1 39/6/1
f 40/6/1 41/6/1 42/6/1
f 40/6/1 42/6/1 43/6/1
f 43/5/1 44/5/1 45/5/1
f 43/5/1 45/5/1 46/5/1
f 44/6/1 47/6/1 48/6/1
f 44/6/1 48/6/1 49/6/1
f 47/6/1 42/6/1 50/6/1
f 47/6/1 50/6/1 51/6/1
f 51/7/1 52/7/1 53/7/1
f 51/7/1 53/7/1 54/7/1
f 52/6/1 50/6/1 55/6/1
f 52/6/1 55/6/1 56/6/1
f 57/6/1 38/6/1 41/6/1
f 57/6/1 41/6/1 58/6/1
f 59/2/1 60/2/1 61/2/1
f 59/2/1 61/2/1 62/2/1
f 60/2/1 63/2/1 64/2/1
f 60/2/1 64/2/1 65/2/1
f 66/2/1 67/2/1 68/2/1
f 66/2/1 68/2/1 61/2/1
f 69/8/1 70/8/1 71/8/1
f 69/8/1 71/8/1 72/8/1
f 73/8/1 74/8/1 75/8/1
f 73/8/1 75/8/1 76/8/1
f 77/8/1 78/8/1 79/8/1
f 77/8/1 79/8/1 80/8/1
f 81/2/1 82/2/1 83/2/1
f 81/2/1 83/2/1 84/2/1
f 85/8/2 86/8/2 87/8/2
f 85/8/2 87/8/2 88/8/2
f 89/2/2 90/2/2 91/2/2
f 89/2/2 91/2/2 92/2/2
f 93/8/2 94/8/2 95/8/2
f 93/8/2 95/8/2 96/8/2
f 97/8/2 98/8/2 99/8/2
f 97/8/2 99/8/2 100/8/2
f 101/2/2 102/2/2 103/2/2
f 101/2/2 103/2/2 104/2/2
f 104/2/2 105/2/2 106/2/2
f 104/2/2 106/2/2 107/2/2
f 108/2/2 103/2/2 109/2/2
f 108/2/2 109/2/2 110/2/2
f 111/6/2 112/6/2 113/6/2
f 111/6/2 113/6/2 114/6/2
f 115/6/2 116/6/2 117/6/2
f 115/6/2 117/6/2 118/6/2
f 116/5/2 119/5/2 120/5/2
f 116/5/2 120/5/2 121/5/2
f 121/6/2 122/6/2 123/6/2
f 121/6/2 123/6/2 117/6/2
f 124/7/2 125/7/2 126/7/2
f 124/7/2 126/7/2 127/7/2
f 128/6/2 129/6/2 118/6/2
f 128/6/2 118/6/2 113/6/2
f 130/1/2 131/1/2 132/1/2
f 130/1/2 132/1/2 133/1/2
f 134/5/2 135/5/2 136/5/2
f 134/5/2 136/5/2 137/5/2
f 138/2/2 139/2/2 140/2/2
f 138/2/2 140/2/2 141/2/2
f 142/4/2 143/4/2 144/4/2
f 142/4/2 144/4/2 145/4/2
f 146/4/2 147/4/2 148/4/2
f 146/4/2 148/4/2 149/4/2
f 150/4/2 148/4/2 151/4/2
f 150/4/2 151/4/2 152/4/2
f 153/3/2 154/3/2 155/3/2
f 153/3/2 155/3/2 156/3/2
f 157/2/2 158/2/2 159/2/2
f 157/2/2 159/2/2 160/2/2
f 161/1/2 162/1/2 163/1/2
f 161/1/2 163/1/2 164/1/2
f 152/4/3 151/4/3 19/4/3
f 152/4/3 19/4/3 18/4/3
f 107/2/3 106/2/3 112/2/3
f 107/2/3 112/2/3 111/2/3
f 36/2/3 39/2/3 64/2/3
f 36/2/3 64/2/3 63/2/3
f 96/8/3 95/8/3 110/8/3
f 96/8/3 110/8/3 165/8/3
f 165/2/3 109/2/3 119/2/3
f 165/2/3 119/2/3 115/2/3
f 40/8/3 43/8/3 71/8/3
f 40/8/3 71/8/3 70/8/3
f 43/2/3 46/2/3 68/2/3
f 43/2/3 68/2/3 67/2/3
f 137/5/3 136/5/3 26/5/3
f 137/5/3 26/5/3 25/5/3
f 122/5/3 120/5/3 166/5/3
f 122/5/3 166/5/3 153/5/3
f 9/5/3 167/5/3 45/5/3
f 9/5/3 45/5/3 49/5/3
f 168/3/3 155/3/3 11/3/3
f 168/3/3 11/3/3 169/3/3
f 88/8/3 87/8/3 98/8/3
f 88/8/3 98/8/3 97/8/3
f 73/8/3 76/8/3 79/8/3
f 73/8/3 79/8/3 78/8/3
f 127/7/3 126/7/3 170/7/3
f 127/7/3 170/7/3 171/7/3
f 171/2/3 170/2/3 172/2/3
f 171/2/3 172/2/3 173/2/3
f 173/7/3 172/7/3 174/7/3
f 173/7/3 174/7/3 175/7/3
f 175/2/3 174/2/3 176/2/3
f 175/2/3 176/2/3 177/2/3
f 177/7/3 176/7/3 53/7/3
f 177/7/3 53/7/3 56/7/3
f 100/8/3 99/8/3 129/8/3
f 100/8/3 129/8/3 128/8/3
f 57/8/3 58/8/3 75/8/3
f 57/8/3 75/8/3 74/8/3
f 92/2/3 178/2/3 179/2/3
f 92/2/3 179/2/3 82/2/3
f 178/2/3 91/2/3 180/2/3
f 178/2/3 180/2/3 138/2/3
f 28/2/3 181/2/3 83/2/3
f 28/2/3 83/2/3 179/2/3
f 139/2/3 180/2/3 181/2/3
f 139/2/3 181/2/3 31/2/3
f 141/2/3 140/2/3 30/2/3
f 141/2/3 30/2/3 29/2/3
f 101/2/4 59/2/4 62/2/4
f 101/2/4 62/2/4 102/2/4
f 146/4/4 13/4/4 16/4/4
f 146/4/4 16/4/4 147/4/4
f 142/4/4 149/4/4 150/4/4
f 142/4/4 150/4/4 143/4/4
f 14/4/4 20/4/4 23/4/4
f 14/4/4 23/4/4 17/4/4
f 85/8/4 105/8/4 182/8/4
f 85/8/4 182/8/4 86/8/4
f 65/8/4 77/8/4 80/8/4
f 65/8/4 80/8/4 183/8/4
f 93/8/4 182/8/4 108/8/4
f 93/8/4 108/8/4 94/8/4
f 183/8/4 69/8/4 72/8/4
f 183/8/4 72/8/4 66/8/4
f 134/5/4 145/5/4 144/5/4
f 134/5/4 144/5/4 135/5/4
f 21/5/4 24/5/4 27/5/4
f 21/5/4 27/5/4 22/5/4
f 166/3/4 167/3/4 12/3/4
f 166/3/4 12/3/4 154/3/4
f 130/1/4 1/1/4 4/1/4
f 130/1/4 4/1/4 131/1/4
f 161/1/4 32/1/4 35/1/4
f 161/1/4 35/1/4 162/1/4
f 124/7/4 133/7/4 132/7/4
f 124/7/4 132/7/4 125/7/4
f 2/2/4 5/2/4 8/2/4
f 2/2/4 8/2/4 3/2/4
f 157/2/4 164/2/4 163/2/4
f 157/2/4 163/2/4 158/2/4
f 33/7/4 48/7/4 54/7/4
f 33/7/4 54/7/4 34/7/4
f 6/7/4 156/7/4 168/7/4
f 6/7/4 168/7/4 7/7/4
f 10/7/4 160/7/4 159/7/4
f 10/7/4 159/7/4 169/7/4
f 89/2/4 81/2/4 184/2/4
f 89/2/4 184/2/4 185/2/4
f 185/2/4 114/2/4 186/2/4
f 185/2/4 186/2/4 90/2/4
f 37/2/4 184/2/4 84/2/4
f 37/2/4 84/2/4 187/2/4
f 123/2/4 55/2/4 187/2/4
f 123/2/4 187/2/4 186/2/4
f 86/8/5 93/8/5 98/8/5
f 86/8/5 98/8/5 87/8/5
f 69/8/5 80/8/5 79/8/5
f 69/8/5 79/8/5 76/8/5
f 96/8/5 115/8/5 129/8/5
f 96/8/5 129/8/5 99/8/5
f 40/8/5 70/8/5 75/8/5
f 40/8/5 75/8/5 58/8/5
f 94/8/5 108/8/5 110/8/5
f 94/8/5 110/8/5 95/8/5
f 66/8/5 72/8/5 71/8/5
f 66/8/5 71/8/5 67/8/5
f 139/2/5 31/2/5 30/2/5
f 139/2/5 30/2/5 140/2/5
f 122/6/5 153/6/5 188/6/5
f 122/6/5 188/6/5 189/6/5
f 9/6/5 49/6/5 190/6/5
f 9/6/5 190/6/5 191/6/5
f 189/6/5 130/6/5 133/6/5
f 189/6/5 133/6/5 124/6/5
f 1/6/5 188/6/5 192/6/5
f 1/6/5 192/6/5 2/6/5
f 191/6/5 161/6/5 164/6/5
f 191/6/5 164/6/5 193/6/5
f 32/6/5 190/6/5 48/6/5
f 32/6/5 48/6/5 33/6/5
f 5/6/5 192/6/5 156/6/5
f 5/6/5 156/6/5 6/6/5
f 193/6/5 157/6/5 160/6/5
f 193/6/5 160/6/5 10/6/5
f 127/6/5 194/6/5 195/6/5
f 127/6/5 195/6/5 123/6/5
f 194/5/5 196/5/5 197/5/5
f 194/5/5 197/5/5 198/5/5
f 196/6/5 56/6/5 55/6/5
f 196/6/5 55/6/5 199/6/5
f 198/6/5 197/6/5 199/6/5
f 198/6/5 199/6/5 195/6/5
f 102/2/5 62/2/5 200/2/5
f 102/2/5 200/2/5 201/2/5
f 201/2/5 146/2/5 149/2/5
f 201/2/5 149/2/5 202/2/5
f 13/2/5 200/2/5 203/2/5
f 13/2/5 203/2/5 14/2/5
f 202/2/5 142/2/5 145/2/5
f 202/2/5 145/2/5 204/2/5
f 20/2/5 203/2/5 205/2/5
f 20/2/5 205/2/5 21/2/5
f 204/2/5 134/2/5 206/2/5
f 204/2/5 206/2/5 207/2/5
f 24/2/5 205/2/5 208/2/5
f 24/2/5 208/2/5 209/2/5
f 207/2/5 210/2/5 119/2/5
f 207/2/5 119/2/5 109/2/5
f 210/5/5 206/5/5 211/5/5
f 210/5/5 211/5/5 120/5/5
f 209/5/5 212/5/5 45/5/5
f 209/5/5 45/5/5 213/5/5
f 212/2/5 208/2/5 68/2/5
f 212/2/5 68/2/5 46/2/5
f 137/5/5 25/5/5 213/5/5
f 137/5/5 213/5/5 211/5/5
f 131/1/5 4/1/5 3/1/5
f 131/1/5 3/1/5 132/1/5
f 162/1/5 35/1/5 34/1/5
f 162/1/5 34/1/5 163/1/5
f 125/7/5 132/7/5 170/7/5
f 125/7/5 170/7/5 126/7/5
f 132/2/5 8/2/5 172/2/5
f 132/2/5 172/2/5 170/2/5
f 158/2/5 34/2/5 176/2/5
f 158/2/5 176/2/5 174/2/5
f 34/7/5 54/7/5 53/7/5
f 34/7/5 53/7/5 176/7/5
f 7/7/5 159/7/5 174/7/5
f 7/7/5 174/7/5 172/7/5
f 143/4/5 150/4/5 214/4/5
f 143/4/5 214/4/5 144/4/5
f 17/4/5 23/4/5 22/4/5
f 17/4/5 22/4/5 215/4/5
f 152/4/5 18/4/5 216/4/5
f 152/4/5 216/4/5 217/4/5
f 217/5/5 216/5/5 218/5/5
f 217/5/5 218/5/5 219/5/5
f 135/5/5 214/5/5 219/5/5
f 135/5/5 219/5/5 136/5/5
f 215/5/5 27/5/5 26/5/5
f 215/5/5 26/5/5 218/5/5
f 154/3/5 12/3/5 11/3/5
f 154/3/5 11/3/5 155/3/5
f 147/4/5 16/4/5 19/4/5
f 147/4/5 19/4/5 151/4/5
f 90/2/5 84/2/5 83/2/5
f 90/2/5 83/2/5 91/2/5
f 89/2/6 92/2/6 82/2/6
f 89/2/6 82/2/6 81/2/6
f 101/2/6 220/2/6 221/2/6
f 101/2/6 221/2/6 59/2/6
f 220/2/6 107/2/6 111/2/6
f 220/2/6 111/2/6 222/2/6
f 222/6/6 114/6/6 37/6/6
f 222/6/6 37/6/6 223/6/6
f 223/2/6 36/2/6 63/2/6
f 223/2/6 63/2/6 221/2/6
f 138/2/6 141/2/6 29/2/6
f 138/2/6 29/2/6 28/2/6
f 85/8/6 88/8/6 224/8/6
f 85/8/6 224/8/6 105/8/6
f 65/8/6 225/8/6 78/8/6
f 65/8/6 78/8/6 77/8/6
f 106/8/6 226/8/6 128/8/6
f 106/8/6 128/8/6 112/8/6
f 39/8/6 57/8/6 227/8/6
f 39/8/6 227/8/6 64/8/6
f 97/8/6 100/8/6 226/8/6
f 97/8/6 226/8/6 224/8/6
f 225/8/6 227/8/6 74/8/6
f 225/8/6 74/8/6 73/8/6
