# Bero voxelgen

o 

mtllib rabbi.vox.mtl
usemtl palette

# normals
vn 1 0 0
vn -1 0 0
vn 0 1 0
vn 0 -1 0
vn 0 0 1
vn 0 0 -1

# texcoords
vt 0.021484 0.5
vt 0.001953 0.5
vt 0.017578 0.5
vt 0.029297 0.5
vt 0.013672 0.5
vt 0.005859 0.5
vt 0.025391 0.5
vt 0.009766 0.5

# verts
v -0.35 2.1 0.7
v -0.35 2.2 0.7
v -0.35 2.2 0.8
v -0.35 2.1 0.8
v -0.25 2.2 0.7
v -0.25 2.3 0.7
v -0.25 2.3 0.8
v -0.25 2.2 0.8
v 0.15 2 0.7
v 0.15 2.3 0.7
v 0.15 2.3 0.9
v 0.15 2 0.9
v 0.25 0.1 0.8
v 0.25 0.9 0.8
v 0.25 0.9 1
v 0.25 0.1 1
v 0.25 0.9 0.9
v 0.25 1 0.9
v 0.25 1 1
v 0.35 0.9 0.8
v 0.35 1.3 0.8
v 0.35 1.3 0.9
v 0.35 0.9 0.9
v 0.55 1.3 0.8
v 0.55 1.7 0.8
v 0.55 1.7 0.9
v 0.55 1.3 0.9
v 0.55 2.8 -0.5
v 0.55 3.2 -0.5
v 0.55 3.2 0.5
v 0.55 2.8 0.5
v 0.65 2.1 0.7
v 0.65 2.2 0.7
v 0.65 2.2 0.8
v 0.65 2.1 0.8
v 0.75 1.6 -0.8
v 0.75 2.2 -0.8
v 0.75 2.2 0
v 0.75 1.6 0
v 0.75 1.6 0.6
v 0.75 2 0.6
v 0.75 2 0.8
v 0.75 1.6 0.8
v 0.75 2.2 0.6
v 0.75 2.2 0.7
v 0.75 2 0.7
v 0.75 2.6 -0.8
v 0.75 2.6 -0.1
v 0.75 2.2 -0.1
v 0.75 2.4 0.6
v 0.75 2.4 0.8
v 0.75 2.2 0.8
v 0.75 2.6 0.6
v 0.75 2.6 0.7
v 0.75 2.4 0.7
v 0.75 2.5 -0.1
v 0.75 2.5 0.6
v 0.95 0 -0.8
v 0.95 1.2 -0.8
v 0.95 1.2 0.8
v 0.95 0 0.8
v 0.95 1.3 -0.8
v 0.95 1.3 0.3
v 0.95 1.2 0.3
v 0.95 1.6 -0.8
v 0.95 1.6 0
v 0.95 1.3 0
v 1.05 1.2 0.3
v 1.05 1.3 0.3
v 1.05 1.3 0.8
v 1.05 1.2 0.8
v 1.05 1.3 0.6
v 1.05 1.6 0.6
v 1.05 1.6 0.8
v 1.05 2.2 -0.1
v 1.05 2.5 -0.1
v 1.05 2.5 0
v 1.05 2.2 0
v 1.05 2.4 0
v 1.05 2.5 0.6
v 1.05 2.4 0.6
v 1.15 1.3 0
v 1.15 2.4 0
v 1.15 2.4 0.6
v 1.15 1.3 0.6
v 1.15 2.6 -1
v 1.15 2.8 -1
v 1.15 2.8 1
v 1.15 2.6 1
v -1.15 1.3 0
v -1.15 1.3 0.6
v -1.15 2.4 0.6
v -1.15 2.4 0
v -1.15 2.6 -1
v -1.15 2.6 1
v -1.15 2.8 1
v -1.15 2.8 -1
v -1.05 1.2 0.3
v -1.05 1.2 0.8
v -1.05 1.3 0.8
v -1.05 1.3 0.3
v -1.05 1.3 0.6
v -1.05 1.6 0.8
v -1.05 1.6 0.6
v -1.05 2.2 -0.1
v -1.05 2.2 0
v -1.05 2.5 0
v -1.05 2.5 -0.1
v -1.05 2.4 0
v -1.05 2.4 0.6
v -1.05 2.5 0.6
v -0.95 0 -0.8
v -0.95 0 0.8
v -0.95 1.2 0.8
v -0.95 1.2 -0.8
v -0.95 1.2 0.3
v -0.95 1.3 0.3
v -0.95 1.3 -0.8
v -0.95 1.3 0
v -0.95 1.6 0
v -0.95 1.6 -0.8
v -0.75 1.6 -0.8
v -0.75 1.6 0
v -0.75 2.2 0
v -0.75 2.2 -0.8
v -0.75 1.6 0.6
v -0.75 1.6 0.8
v -0.75 2 0.8
v -0.75 2 0.6
v -0.75 2 0.7
v -0.75 2.6 0.7
v -0.75 2.6 0.6
v -0.75 2.2 -0.1
v -0.75 2.6 -0.1
v -0.75 2.6 -0.8
v -0.75 2.2 0.7
v -0.75 2.2 0.8
v -0.75 2.4 0.8
v -0.75 2.4 0.7
v -0.75 2.5 -0.1
v -0.75 2.5 0.6
v -0.65 2.1 0.7
v -0.65 2.1 0.8
v -0.65 2.2 0.8
v -0.65 2.2 0.7
v -0.55 1.3 0.8
v -0.55 1.3 0.9
v -0.55 1.7 0.9
v -0.55 1.7 0.8
v -0.55 2.8 -0.5
v -0.55 2.8 0.5
v -0.55 3.2 0.5
v -0.55 3.2 -0.5
v -0.35 0.9 0.8
v -0.35 0.9 0.9
v -0.35 1.3 0.9
v -0.35 1.3 0.8
v -0.25 0.1 0.8
v -0.25 0.1 1
v -0.25 0.9 1
v -0.25 0.9 0.8
v -0.25 0.9 0.9
v -0.25 1 1
v -0.25 1 0.9
v -0.15 2 0.7
v -0.15 2 0.9
v -0.15 2.3 0.9
v -0.15 2.3 0.7
v 0.25 2.2 0.7
v 0.25 2.2 0.8
v 0.25 2.3 0.8
v 0.25 2.3 0.7
v 0.35 2.1 0.7
v 0.35 2.1 0.8
v 0.35 2.2 0.8
v 0.35 2.2 0.7
v -0.95 1.6 0.8
v -0.95 1.6 0.6
v -0.15 2 0.8
v 0.15 2 0.8
v -0.15 2.3 0.8
v 0.15 2.3 0.8
v -0.65 2.4 0.8
v -0.65 2.4 0.7
v -0.25 2.4 0.8
v -0.25 2.4 0.7
v 0.25 2.4 0.8
v 0.25 2.4 0.7
v 0.65 2.4 0.8
v 0.65 2.4 0.7
v -1.15 2.8 -0.5
v 1.15 2.8 -0.5
v -0.55 2.8 1
v 0.55 2.8 1
v -1.15 1.3 0.3
v 1.15 1.3 0.3
v 1.15 2.6 -0.8
v -1.15 2.6 -0.8
v -0.75 2.6 1
v 0.75 2.6 1
v -0.15 2.1 0.7
v -0.75 2.1 0.7
v 0.75 2.1 0.7
v 0.15 2.1 0.7
v -0.15 2.2 0.7
v 0.15 2.2 0.7
v 0.15 2.4 0.7
v 0.15 2.6 0.7
v 0.55 2.4 0.7
v 0.55 2.5 0.7
v 0.15 2.5 0.7
v 0.55 2.6 0.7
v 0.95 0.1 0.8
v -0.95 0.1 0.8
v -0.95 0.9 0.8
v 0.95 0.9 0.8
v -0.95 1.3 0.8
v 0.35 1.2 0.8
v 0.65 1.2 0.8
v 0.65 1.3 0.8
v 0.65 1.6 0.8
v -0.55 1.5 0.8
v -0.95 1.5 0.8
v 0.65 1.5 0.8
v 0.55 1.5 0.8
v -0.75 1.5 0.8
v -0.55 2 0.8
v 0.65 2 0.8
v 0.55 2 0.8
v -0.25 1.3 0.9
v 0.25 1.3 0.9
v 0.25 1.1 0.9
v -0.25 1.1 0.9
v 0.25 1.7 0.9
v -0.25 1.7 0.9
v -0.95 1.5 -0.8
v 0.95 1.5 -0.8
v -0.75 1.5 -0.8
v 0.75 1.5 -0.8
v -1.15 2.2 0
v -0.95 2.2 0
v 0.95 2.2 0
v 1.15 2.2 0

# faces
f 1/1/1 2/1/1 3/1/1
f 1/1/1 3/1/1 4/1/1
f 5/2/1 6/2/1 7/2/1
f 5/2/1 7/2/1 8/2/1
f 9/3/1 10/3/1 11/3/1
f 9/3/1 11/3/1 12/3/1
f 13/4/1 14/4/1 15/4/1
f 13/4/1 15/4/1 16/4/1
f 17/4/1 18/4/1 19/4/1
f 17/4/1 19/4/1 15/4/1
f 20/4/1 21/4/1 22/4/1
f 20/4/1 22/4/1 23/4/1
f 24/5/1 25/5/1 26/5/1
f 24/5/1 26/5/1 27/5/1
f 28/2/1 29/2/1 30/2/1
f 28/2/1 30/2/1 31/2/1
f 32/1/1 33/1/1 34/1/1
f 32/1/1 34/1/1 35/1/1
f 36/6/1 37/6/1 38/6/1
f 36/6/1 38/6/1 39/6/1
f 40/5/1 41/5/1 42/5/1
f 40/5/1 42/5/1 43/5/1
f 41/6/1 44/6/1 45/6/1
f 41/6/1 45/6/1 46/6/1
f 37/6/1 47/6/1 48/6/1
f 37/6/1 48/6/1 49/6/1
f 44/7/1 50/7/1 51/7/1
f 44/7/1 51/7/1 52/7/1
f 50/6/1 53/6/1 54/6/1
f 50/6/1 54/6/1 55/6/1
f 56/6/1 48/6/1 53/6/1
f 56/6/1 53/6/1 57/6/1
f 58/2/1 59/2/1 60/2/1
f 58/2/1 60/2/1 61/2/1
f 59/2/1 62/2/1 63/2/1
f 59/2/1 63/2/1 64/2/1
f 62/2/1 65/2/1 66/2/1
f 62/2/1 66/2/1 67/2/1
f 68/8/1 69/8/1 70/8/1
f 68/8/1 70/8/1 71/8/1
f 72/8/1 73/8/1 74/8/1
f 72/8/1 74/8/1 70/8/1
f 75/8/1 76/8/1 77/8/1
f 75/8/1 77/8/1 78/8/1
f 79/8/1 77/8/1 80/8/1
f 79/8/1 80/8/1 81/8/1
f 82/8/1 83/8/1 84/8/1
f 82/8/1 84/8/1 85/8/1
f 86/2/1 87/2/1 88/2/1
f 86/2/1 88/2/1 89/2/1
f 90/8/2 91/8/2 92/8/2
f 90/8/2 92/8/2 93/8/2
f 94/2/2 95/2/2 96/2/2
f 94/2/2 96/2/2 97/2/2
f 98/8/2 99/8/2 100/8/2
f 98/8/2 100/8/2 101/8/2
f 102/8/2 100/8/2 103/8/2
f 102/8/2 103/8/2 104/8/2
f 105/8/2 106/8/2 107/8/2
f 105/8/2 107/8/2 108/8/2
f 109/8/2 110/8/2 111/8/2
f 109/8/2 111/8/2 107/8/2
f 112/2/2 113/2/2 114/2/2
f 112/2/2 114/2/2 115/2/2
f 115/2/2 116/2/2 117/2/2
f 115/2/2 117/2/2 118/2/2
f 118/2/2 119/2/2 120/2/2
f 118/2/2 120/2/2 121/2/2
f 122/6/2 123/6/2 124/6/2
f 122/6/2 124/6/2 125/6/2
f 126/5/2 127/5/2 128/5/2
f 126/5/2 128/5/2 129/5/2
f 129/6/2 130/6/2 131/6/2
f 129/6/2 131/6/2 132/6/2
f 125/6/2 133/6/2 134/6/2
f 125/6/2 134/6/2 135/6/2
f 136/7/2 137/7/2 138/7/2
f 136/7/2 138/7/2 139/7/2
f 140/6/2 141/6/2 132/6/2
f 140/6/2 132/6/2 134/6/2
f 142/1/2 143/1/2 144/1/2
f 142/1/2 144/1/2 145/1/2
f 146/5/2 147/5/2 148/5/2
f 146/5/2 148/5/2 149/5/2
f 150/2/2 151/2/2 152/2/2
f 150/2/2 152/2/2 153/2/2
f 154/4/2 155/4/2 156/4/2
f 154/4/2 156/4/2 157/4/2
f 158/4/2 159/4/2 160/4/2
f 158/4/2 160/4/2 161/4/2
f 162/4/2 160/4/2 163/4/2
f 162/4/2 163/4/2 164/4/2
f 165/3/2 166/3/2 167/3/2
f 165/3/2 167/3/2 168/3/2
f 169/2/2 170/2/2 171/2/2
f 169/2/2 171/2/2 172/2/2
f 173/1/2 174/1/2 175/1/2
f 173/1/2 175/1/2 176/1/2
f 164/4/3 163/4/3 19/4/3
f 164/4/3 19/4/3 18/4/3
f 121/2/3 120/2/3 123/2/3
f 121/2/3 123/2/3 122/2/3
f 36/2/3 39/2/3 66/2/3
f 36/2/3 66/2/3 65/2/3
f 104/8/3 103/8/3 177/8/3
f 104/8/3 177/8/3 178/8/3
f 178/2/3 177/2/3 127/2/3
f 178/2/3 127/2/3 126/2/3
f 40/8/3 43/8/3 74/8/3
f 40/8/3 74/8/3 73/8/3
f 149/5/3 148/5/3 26/5/3
f 149/5/3 26/5/3 25/5/3
f 130/5/3 128/5/3 179/5/3
f 130/5/3 179/5/3 165/5/3
f 9/5/3 180/5/3 42/5/3
f 9/5/3 42/5/3 46/5/3
f 181/3/3 167/3/3 11/3/3
f 181/3/3 11/3/3 182/3/3
f 93/8/3 92/8/3 110/8/3
f 93/8/3 110/8/3 109/8/3
f 79/8/3 81/8/3 84/8/3
f 79/8/3 84/8/3 83/8/3
f 139/7/3 138/7/3 183/7/3
f 139/7/3 183/7/3 184/7/3
f 184/2/3 183/2/3 185/2/3
f 184/2/3 185/2/3 186/2/3
f 186/7/3 185/7/3 187/7/3
f 186/7/3 187/7/3 188/7/3
f 188/2/3 187/2/3 189/2/3
f 188/2/3 189/2/3 190/2/3
f 190/7/3 189/7/3 51/7/3
f 190/7/3 51/7/3 55/7/3
f 108/8/3 111/8/3 141/8/3
f 108/8/3 141/8/3 140/8/3
f 56/8/3 57/8/3 80/8/3
f 56/8/3 80/8/3 76/8/3
f 97/2/3 191/2/3 192/2/3
f 97/2/3 192/2/3 87/2/3
f 191/2/3 96/2/3 193/2/3
f 191/2/3 193/2/3 150/2/3
f 28/2/3 194/2/3 88/2/3
f 28/2/3 88/2/3 192/2/3
f 151/2/3 193/2/3 194/2/3
f 151/2/3 194/2/3 31/2/3
f 153/2/3 152/2/3 30/2/3
f 153/2/3 30/2/3 29/2/3
f 112/2/4 58/2/4 61/2/4
f 112/2/4 61/2/4 113/2/4
f 158/4/4 13/4/4 16/4/4
f 158/4/4 16/4/4 159/4/4
f 154/4/4 161/4/4 162/4/4
f 154/4/4 162/4/4 155/4/4
f 14/4/4 20/4/4 23/4/4
f 14/4/4 23/4/4 17/4/4
f 98/8/4 116/8/4 114/8/4
f 98/8/4 114/8/4 99/8/4
f 64/8/4 68/8/4 71/8/4
f 64/8/4 71/8/4 60/8/4
f 90/8/4 119/8/4 117/8/4
f 90/8/4 117/8/4 195/8/4
f 67/8/4 82/8/4 196/8/4
f 67/8/4 196/8/4 63/8/4
f 195/8/4 101/8/4 102/8/4
f 195/8/4 102/8/4 91/8/4
f 69/8/4 196/8/4 85/8/4
f 69/8/4 85/8/4 72/8/4
f 146/5/4 157/5/4 156/5/4
f 146/5/4 156/5/4 147/5/4
f 21/5/4 24/5/4 27/5/4
f 21/5/4 27/5/4 22/5/4
f 179/3/4 180/3/4 12/3/4
f 179/3/4 12/3/4 166/3/4
f 142/1/4 1/1/4 4/1/4
f 142/1/4 4/1/4 143/1/4
f 173/1/4 32/1/4 35/1/4
f 173/1/4 35/1/4 174/1/4
f 105/8/4 133/8/4 124/8/4
f 105/8/4 124/8/4 106/8/4
f 49/8/4 75/8/4 78/8/4
f 49/8/4 78/8/4 38/8/4
f 136/7/4 145/7/4 144/7/4
f 136/7/4 144/7/4 137/7/4
f 2/2/4 5/2/4 8/2/4
f 2/2/4 8/2/4 3/2/4
f 169/2/4 176/2/4 175/2/4
f 169/2/4 175/2/4 170/2/4
f 33/7/4 45/7/4 52/7/4
f 33/7/4 52/7/4 34/7/4
f 6/7/4 168/7/4 181/7/4
f 6/7/4 181/7/4 7/7/4
f 10/7/4 172/7/4 171/7/4
f 10/7/4 171/7/4 182/7/4
f 94/2/4 86/2/4 197/2/4
f 94/2/4 197/2/4 198/2/4
f 198/2/4 135/2/4 199/2/4
f 198/2/4 199/2/4 95/2/4
f 47/2/4 197/2/4 89/2/4
f 47/2/4 89/2/4 200/2/4
f 131/2/4 54/2/4 200/2/4
f 131/2/4 200/2/4 199/2/4
f 151/2/5 31/2/5 30/2/5
f 151/2/5 30/2/5 152/2/5
f 91/8/5 102/8/5 110/8/5
f 91/8/5 110/8/5 92/8/5
f 72/8/5 85/8/5 84/8/5
f 72/8/5 84/8/5 81/8/5
f 104/8/5 126/8/5 141/8/5
f 104/8/5 141/8/5 111/8/5
f 40/8/5 73/8/5 80/8/5
f 40/8/5 80/8/5 57/8/5
f 130/6/5 165/6/5 201/6/5
f 130/6/5 201/6/5 202/6/5
f 9/6/5 46/6/5 203/6/5
f 9/6/5 203/6/5 204/6/5
f 202/6/5 142/6/5 145/6/5
f 202/6/5 145/6/5 136/6/5
f 1/6/5 201/6/5 205/6/5
f 1/6/5 205/6/5 2/6/5
f 204/6/5 173/6/5 176/6/5
f 204/6/5 176/6/5 206/6/5
f 32/6/5 203/6/5 45/6/5
f 32/6/5 45/6/5 33/6/5
f 5/6/5 205/6/5 168/6/5
f 5/6/5 168/6/5 6/6/5
f 206/6/5 169/6/5 172/6/5
f 206/6/5 172/6/5 10/6/5
f 139/6/5 207/6/5 208/6/5
f 139/6/5 208/6/5 131/6/5
f 207/5/5 209/5/5 210/5/5
f 207/5/5 210/5/5 211/5/5
f 209/6/5 55/6/5 54/6/5
f 209/6/5 54/6/5 212/6/5
f 211/6/5 210/6/5 212/6/5
f 211/6/5 212/6/5 208/6/5
f 113/2/5 61/2/5 213/2/5
f 113/2/5 213/2/5 214/2/5
f 214/2/5 158/2/5 161/2/5
f 214/2/5 161/2/5 215/2/5
f 13/2/5 213/2/5 216/2/5
f 13/2/5 216/2/5 14/2/5
f 215/2/5 154/2/5 157/2/5
f 215/2/5 157/2/5 217/2/5
f 20/2/5 216/2/5 60/2/5
f 20/2/5 60/2/5 218/2/5
f 99/8/5 114/8/5 177/8/5
f 99/8/5 177/8/5 103/8/5
f 218/2/5 219/2/5 220/2/5
f 218/2/5 220/2/5 21/2/5
f 219/8/5 71/8/5 74/8/5
f 219/8/5 74/8/5 221/8/5
f 217/2/5 146/2/5 222/2/5
f 217/2/5 222/2/5 223/2/5
f 24/2/5 220/2/5 224/2/5
f 24/2/5 224/2/5 225/2/5
f 223/2/5 226/2/5 127/2/5
f 223/2/5 127/2/5 177/2/5
f 226/5/5 222/5/5 227/5/5
f 226/5/5 227/5/5 128/5/5
f 225/5/5 224/5/5 228/5/5
f 225/5/5 228/5/5 229/5/5
f 221/5/5 43/5/5 42/5/5
f 221/5/5 42/5/5 228/5/5
f 149/5/5 25/5/5 229/5/5
f 149/5/5 229/5/5 227/5/5
f 143/1/5 4/1/5 3/1/5
f 143/1/5 3/1/5 144/1/5
f 174/1/5 35/1/5 34/1/5
f 174/1/5 34/1/5 175/1/5
f 137/7/5 144/7/5 183/7/5
f 137/7/5 183/7/5 138/7/5
f 144/2/5 8/2/5 185/2/5
f 144/2/5 185/2/5 183/2/5
f 170/2/5 34/2/5 189/2/5
f 170/2/5 189/2/5 187/2/5
f 34/7/5 52/7/5 51/7/5
f 34/7/5 51/7/5 189/7/5
f 7/7/5 171/7/5 187/7/5
f 7/7/5 187/7/5 185/7/5
f 155/4/5 162/4/5 230/4/5
f 155/4/5 230/4/5 156/4/5
f 17/4/5 23/4/5 22/4/5
f 17/4/5 22/4/5 231/4/5
f 164/4/5 18/4/5 232/4/5
f 164/4/5 232/4/5 233/4/5
f 233/5/5 232/5/5 234/5/5
f 233/5/5 234/5/5 235/5/5
f 147/5/5 230/5/5 235/5/5
f 147/5/5 235/5/5 148/5/5
f 231/5/5 27/5/5 26/5/5
f 231/5/5 26/5/5 234/5/5
f 166/3/5 12/3/5 11/3/5
f 166/3/5 11/3/5 167/3/5
f 159/4/5 16/4/5 19/4/5
f 159/4/5 19/4/5 163/4/5
f 95/2/5 89/2/5 88/2/5
f 95/2/5 88/2/5 96/2/5
f 94/2/6 97/2/6 87/2/6
f 94/2/6 87/2/6 86/2/6
f 112/2/6 236/2/6 237/2/6
f 112/2/6 237/2/6 58/2/6
f 236/2/6 121/2/6 122/2/6
f 236/2/6 122/2/6 238/2/6
f 238/6/6 135/6/6 47/6/6
f 238/6/6 47/6/6 239/6/6
f 239/2/6 36/2/6 65/2/6
f 239/2/6 65/2/6 237/2/6
f 150/2/6 153/2/6 29/2/6
f 150/2/6 29/2/6 28/2/6
f 105/8/6 108/8/6 140/8/6
f 105/8/6 140/8/6 133/8/6
f 49/8/6 56/8/6 76/8/6
f 49/8/6 76/8/6 75/8/6
f 90/8/6 240/8/6 241/8/6
f 90/8/6 241/8/6 119/8/6
f 67/8/6 242/8/6 243/8/6
f 67/8/6 243/8/6 82/8/6
f 120/8/6 241/8/6 124/8/6
f 120/8/6 124/8/6 123/8/6
f 39/8/6 38/8/6 242/8/6
f 39/8/6 242/8/6 66/8/6
f 240/8/6 93/8/6 109/8/6
f 240/8/6 109/8/6 106/8/6
f 78/8/6 79/8/6 83/8/6
f 78/8/6 83/8/6 243/8/6
f 98/8/6 101/8/6 117/8/6
f 98/8/6 117/8/6 116/8/6
f 64/8/6 63/8/6 69/8/6
f 64/8/6 69/8/6 68/8/6
