# Bero voxelgen

o 

mtllib owl.vox.mtl
usemtl palette

# normals
vn 1 0 0
vn -1 0 0
vn 0 1 0
vn 0 -1 0
vn 0 0 1
vn 0 0 -1

# texcoords
vt 0.001953 0.5
vt 0.005859 0.5
vt 0.025391 0.5
vt 0.009766 0.5
vt 0.013672 0.5
vt 0.017578 0.5
vt 0.021484 0.5

# verts
v -0.45 2.4 -0.3
v -0.45 2.6 -0.3
v -0.45 2.6 0.1
v -0.45 2.4 0.1
v -0.45 2.8 -0.3
v -0.45 2.8 0.1
v -0.35 1.7 0.8
v -0.35 1.9 0.8
v -0.35 1.9 0.9
v -0.35 1.7 0.9
v -0.15 0 0.3
v -0.15 0.1 0.3
v -0.15 0.1 0.6
v -0.15 0 0.6
v -0.15 1.8 0.7
v -0.15 2.1 0.7
v -0.15 2.1 0.8
v -0.15 1.8 0.8
v 0.05 1.3 0.7
v 0.05 1.5 0.7
v 0.05 1.5 0.9
v 0.05 1.3 0.9
v 0.05 1.5 0.8
v 0.05 1.7 0.8
v 0.05 1.7 0.9
v 0.15 0.1 -0.9
v 0.15 0.5 -0.9
v 0.15 0.5 -0.7
v 0.15 0.1 -0.7
v 0.45 0 0.3
v 0.45 0.1 0.3
v 0.45 0.1 0.6
v 0.45 0 0.6
v 0.55 1.7 0.8
v 0.55 1.9 0.8
v 0.55 1.9 0.9
v 0.55 1.7 0.9
v 0.65 0.1 -0.7
v 0.65 0.4 -0.7
v 0.65 0.4 0.6
v 0.65 0.1 0.6
v 0.65 1.3 -0.7
v 0.65 1.3 -0.5
v 0.65 0.4 -0.5
v 0.65 0.4 0.4
v 0.65 1.3 0.4
v 0.65 1.3 0.6
v 0.65 1.5 0.7
v 0.65 2.1 0.7
v 0.65 2.1 0.8
v 0.65 1.5 0.8
v 0.75 1.3 -0.8
v 0.75 2.4 -0.8
v 0.75 2.4 -0.5
v 0.75 1.3 -0.5
v 0.75 1.3 0.4
v 0.75 2.4 0.4
v 0.75 2.4 0.7
v 0.75 1.3 0.7
v 0.75 1.8 -0.5
v 0.75 1.8 0.4
v 0.75 2.4 -0.3
v 0.75 2.6 -0.3
v 0.75 2.6 0.1
v 0.75 2.4 0.1
v 0.75 2.8 -0.3
v 0.75 2.8 0.1
v 0.85 0.4 -0.5
v 0.85 1.8 -0.5
v 0.85 1.8 0.4
v 0.85 0.4 0.4
v -0.85 0.4 -0.5
v -0.85 0.4 0.4
v -0.85 1.8 0.4
v -0.85 1.8 -0.5
v -0.75 1.3 -0.8
v -0.75 1.3 -0.5
v -0.75 2.4 -0.5
v -0.75 2.4 -0.8
v -0.75 1.3 0.4
v -0.75 1.3 0.7
v -0.75 2.4 0.7
v -0.75 2.4 0.4
v -0.75 1.8 -0.5
v -0.75 1.8 0.4
v -0.75 2.4 -0.3
v -0.75 2.4 0.1
v -0.75 2.6 0.1
v -0.75 2.6 -0.3
v -0.75 2.8 0.1
v -0.75 2.8 -0.3
v -0.65 0.1 -0.7
v -0.65 0.1 0.6
v -0.65 0.4 0.6
v -0.65 0.4 -0.7
v -0.65 0.4 -0.5
v -0.65 1.3 -0.5
v -0.65 1.3 -0.7
v -0.65 0.4 0.4
v -0.65 1.3 0.6
v -0.65 1.3 0.4
v -0.65 1.5 0.7
v -0.65 1.5 0.8
v -0.65 2.1 0.8
v -0.65 2.1 0.7
v -0.55 1.7 0.8
v -0.55 1.7 0.9
v -0.55 1.9 0.9
v -0.55 1.9 0.8
v -0.45 0 0.3
v -0.45 0 0.6
v -0.45 0.1 0.6
v -0.45 0.1 0.3
v -0.15 0.1 -0.9
v -0.15 0.1 -0.7
v -0.15 0.5 -0.7
v -0.15 0.5 -0.9
v -0.05 1.3 0.7
v -0.05 1.3 0.9
v -0.05 1.5 0.9
v -0.05 1.5 0.7
v -0.05 1.5 0.8
v -0.05 1.7 0.9
v -0.05 1.7 0.8
v 0.15 0 0.3
v 0.15 0 0.6
v 0.15 0.1 0.6
v 0.15 0.1 0.3
v 0.15 1.8 0.7
v 0.15 1.8 0.8
v 0.15 2.1 0.8
v 0.15 2.1 0.7
v 0.35 1.7 0.8
v 0.35 1.7 0.9
v 0.35 1.9 0.9
v 0.35 1.9 0.8
v 0.45 2.4 -0.3
v 0.45 2.4 0.1
v 0.45 2.6 0.1
v 0.45 2.6 -0.3
v 0.45 2.8 0.1
v 0.45 2.8 -0.3
v -0.45 2.4 0.7
v 0.45 2.4 0.7
v -0.65 0.1 0.3
v 0.65 0.1 0.3
v 0.75 1.3 -0.7
v -0.75 1.3 -0.7
v -0.65 1.3 0.7
v 0.65 1.3 0.7
v -0.15 1.5 0.7
v -0.15 1.5 0.8
v 0.15 1.5 0.7
v 0.15 1.5 0.8
v -0.85 1.3 0.4
v 0.85 1.3 0.4
v 0.45 0.2 0.6
v 0.15 0.2 0.6
v -0.65 0.2 0.6
v 0.45 1.3 0.6
v -0.45 0.2 0.6
v -0.45 1.3 0.6
v -0.05 1.4 0.7
v -0.75 1.4 0.7
v 0.75 1.4 0.7
v 0.05 1.4 0.7
v -0.65 1.4 0.7
v -0.65 2.4 0.7
v 0.65 1.4 0.7
v 0.65 2.4 0.7
v 0.15 2.2 0.7
v -0.15 2.2 0.7
v -0.65 2.2 0.7
v 0.65 2.2 0.7
v -0.15 1.6 0.8
v -0.65 1.6 0.8
v -0.05 1.8 0.8
v 0.05 1.8 0.8
v 0.65 1.6 0.8
v 0.15 1.6 0.8
v -0.55 1.6 0.8
v -0.55 2.1 0.8
v -0.25 1.6 0.8
v -0.25 1.7 0.8
v -0.25 2.1 0.8
v 0.25 1.6 0.8
v 0.25 2.1 0.8
v 0.55 1.6 0.8
v 0.25 1.7 0.8
v 0.55 2.1 0.8
v -0.25 2 0.8
v -0.35 2 0.8
v 0.35 2 0.8
v 0.25 2 0.8
v -0.55 2 0.8
v 0.55 2 0.8
v -0.15 1.3 -0.7
v 0.15 1.3 -0.7
v -0.85 1.3 -0.5
v 0.85 1.3 -0.5

# faces
f 1/1/1 2/1/1 3/1/1
f 1/1/1 3/1/1 4/1/1
f 2/2/1 5/2/1 6/2/1
f 2/2/1 6/2/1 3/2/1
f 7/3/1 8/3/1 9/3/1
f 7/3/1 9/3/1 10/3/1
f 11/4/1 12/4/1 13/4/1
f 11/4/1 13/4/1 14/4/1
f 15/2/1 16/2/1 17/2/1
f 15/2/1 17/2/1 18/2/1
f 19/4/1 20/4/1 21/4/1
f 19/4/1 21/4/1 22/4/1
f 23/4/1 24/4/1 25/4/1
f 23/4/1 25/4/1 21/4/1
f 26/1/1 27/1/1 28/1/1
f 26/1/1 28/1/1 29/1/1
f 30/4/1 31/4/1 32/4/1
f 30/4/1 32/4/1 33/4/1
f 34/3/1 35/3/1 36/3/1
f 34/3/1 36/3/1 37/3/1
f 38/1/1 39/1/1 40/1/1
f 38/1/1 40/1/1 41/1/1
f 39/1/1 42/1/1 43/1/1
f 39/1/1 43/1/1 44/1/1
f 45/1/1 46/1/1 47/1/1
f 45/1/1 47/1/1 40/1/1
f 48/2/1 49/2/1 50/2/1
f 48/2/1 50/2/1 51/2/1
f 52/1/1 53/1/1 54/1/1
f 52/1/1 54/1/1 55/1/1
f 56/1/1 57/1/1 58/1/1
f 56/1/1 58/1/1 59/1/1
f 60/1/1 54/1/1 57/1/1
f 60/1/1 57/1/1 61/1/1
f 62/1/1 63/1/1 64/1/1
f 62/1/1 64/1/1 65/1/1
f 63/2/1 66/2/1 67/2/1
f 63/2/1 67/2/1 64/2/1
f 68/2/1 69/2/1 70/2/1
f 68/2/1 70/2/1 71/2/1
f 72/2/2 73/2/2 74/2/2
f 72/2/2 74/2/2 75/2/2
f 76/1/2 77/1/2 78/1/2
f 76/1/2 78/1/2 79/1/2
f 80/1/2 81/1/2 82/1/2
f 80/1/2 82/1/2 83/1/2
f 84/1/2 85/1/2 83/1/2
f 84/1/2 83/1/2 78/1/2
f 86/1/2 87/1/2 88/1/2
f 86/1/2 88/1/2 89/1/2
f 89/2/2 88/2/2 90/2/2
f 89/2/2 90/2/2 91/2/2
f 92/1/2 93/1/2 94/1/2
f 92/1/2 94/1/2 95/1/2
f 95/1/2 96/1/2 97/1/2
f 95/1/2 97/1/2 98/1/2
f 99/1/2 94/1/2 100/1/2
f 99/1/2 100/1/2 101/1/2
f 102/2/2 103/2/2 104/2/2
f 102/2/2 104/2/2 105/2/2
f 106/3/2 107/3/2 108/3/2
f 106/3/2 108/3/2 109/3/2
f 110/4/2 111/4/2 112/4/2
f 110/4/2 112/4/2 113/4/2
f 114/1/2 115/1/2 116/1/2
f 114/1/2 116/1/2 117/1/2
f 118/4/2 119/4/2 120/4/2
f 118/4/2 120/4/2 121/4/2
f 122/4/2 120/4/2 123/4/2
f 122/4/2 123/4/2 124/4/2
f 125/4/2 126/4/2 127/4/2
f 125/4/2 127/4/2 128/4/2
f 129/2/2 130/2/2 131/2/2
f 129/2/2 131/2/2 132/2/2
f 133/3/2 134/3/2 135/3/2
f 133/3/2 135/3/2 136/3/2
f 137/1/2 138/1/2 139/1/2
f 137/1/2 139/1/2 140/1/2
f 140/2/2 139/2/2 141/2/2
f 140/2/2 141/2/2 142/2/2
f 117/1/3 116/1/3 28/1/3
f 117/1/3 28/1/3 27/1/3
f 124/4/3 123/4/3 25/4/3
f 124/4/3 25/4/3 24/4/3
f 75/2/3 74/2/3 85/2/3
f 75/2/3 85/2/3 84/2/3
f 60/2/3 61/2/3 70/2/3
f 60/2/3 70/2/3 69/2/3
f 15/4/3 18/4/3 130/4/3
f 15/4/3 130/4/3 129/4/3
f 109/3/3 108/3/3 9/3/3
f 109/3/3 9/3/3 8/3/3
f 136/3/3 135/3/3 36/3/3
f 136/3/3 36/3/3 35/3/3
f 105/2/3 104/2/3 17/2/3
f 105/2/3 17/2/3 16/2/3
f 132/2/3 131/2/3 50/2/3
f 132/2/3 50/2/3 49/2/3
f 79/1/3 86/1/3 62/1/3
f 79/1/3 62/1/3 53/1/3
f 1/1/3 143/1/3 144/1/3
f 1/1/3 144/1/3 137/1/3
f 87/1/3 82/1/3 143/1/3
f 87/1/3 143/1/3 4/1/3
f 138/1/3 144/1/3 58/1/3
f 138/1/3 58/1/3 65/1/3
f 91/2/3 90/2/3 6/2/3
f 91/2/3 6/2/3 5/2/3
f 142/2/3 141/2/3 67/2/3
f 142/2/3 67/2/3 66/2/3
f 110/4/4 11/4/4 14/4/4
f 110/4/4 14/4/4 111/4/4
f 125/4/4 30/4/4 33/4/4
f 125/4/4 33/4/4 126/4/4
f 114/1/4 26/1/4 127/1/4
f 114/1/4 127/1/4 13/1/4
f 92/1/4 115/1/4 12/1/4
f 92/1/4 12/1/4 145/1/4
f 29/1/4 38/1/4 146/1/4
f 29/1/4 146/1/4 128/1/4
f 145/1/4 113/1/4 112/1/4
f 145/1/4 112/1/4 93/1/4
f 31/1/4 146/1/4 41/1/4
f 31/1/4 41/1/4 32/1/4
f 72/2/4 96/2/4 99/2/4
f 72/2/4 99/2/4 73/2/4
f 44/2/4 68/2/4 71/2/4
f 44/2/4 71/2/4 45/2/4
f 76/1/4 52/1/4 147/1/4
f 76/1/4 147/1/4 148/1/4
f 148/1/4 98/1/4 97/1/4
f 148/1/4 97/1/4 77/1/4
f 42/1/4 147/1/4 55/1/4
f 42/1/4 55/1/4 43/1/4
f 80/1/4 101/1/4 149/1/4
f 80/1/4 149/1/4 81/1/4
f 46/1/4 56/1/4 59/1/4
f 46/1/4 59/1/4 150/1/4
f 100/1/4 47/1/4 150/1/4
f 100/1/4 150/1/4 149/1/4
f 118/4/4 19/4/4 22/4/4
f 118/4/4 22/4/4 119/4/4
f 102/2/4 151/2/4 152/2/4
f 102/2/4 152/2/4 103/2/4
f 151/4/4 121/4/4 122/4/4
f 151/4/4 122/4/4 152/4/4
f 20/4/4 153/4/4 154/4/4
f 20/4/4 154/4/4 23/4/4
f 153/2/4 48/2/4 51/2/4
f 153/2/4 51/2/4 154/2/4
f 106/3/4 7/3/4 10/3/4
f 106/3/4 10/3/4 107/3/4
f 133/3/4 34/3/4 37/3/4
f 133/3/4 37/3/4 134/3/4
f 87/1/5 4/1/5 3/1/5
f 87/1/5 3/1/5 88/1/5
f 138/1/5 65/1/5 64/1/5
f 138/1/5 64/1/5 139/1/5
f 88/2/5 3/2/5 6/2/5
f 88/2/5 6/2/5 90/2/5
f 139/2/5 64/2/5 67/2/5
f 139/2/5 67/2/5 141/2/5
f 73/2/5 99/2/5 101/2/5
f 73/2/5 101/2/5 155/2/5
f 45/2/5 71/2/5 156/2/5
f 45/2/5 156/2/5 46/2/5
f 155/2/5 80/2/5 85/2/5
f 155/2/5 85/2/5 74/2/5
f 56/2/5 156/2/5 70/2/5
f 56/2/5 70/2/5 61/2/5
f 111/4/5 14/4/5 13/4/5
f 111/4/5 13/4/5 112/4/5
f 126/4/5 33/4/5 157/4/5
f 126/4/5 157/4/5 158/4/5
f 93/1/5 127/1/5 158/1/5
f 93/1/5 158/1/5 159/1/5
f 32/1/5 41/1/5 47/1/5
f 32/1/5 47/1/5 160/1/5
f 159/1/5 161/1/5 162/1/5
f 159/1/5 162/1/5 100/1/5
f 161/5/5 157/5/5 160/5/5
f 161/5/5 160/5/5 162/5/5
f 81/1/5 118/1/5 163/1/5
f 81/1/5 163/1/5 164/1/5
f 19/1/5 59/1/5 165/1/5
f 19/1/5 165/1/5 166/1/5
f 164/1/5 167/1/5 168/1/5
f 164/1/5 168/1/5 82/1/5
f 167/6/5 163/6/5 121/6/5
f 167/6/5 121/6/5 102/6/5
f 166/6/5 169/6/5 48/6/5
f 166/6/5 48/6/5 20/6/5
f 169/1/5 165/1/5 58/1/5
f 169/1/5 58/1/5 170/1/5
f 15/6/5 129/6/5 171/6/5
f 15/6/5 171/6/5 172/6/5
f 105/6/5 16/6/5 172/6/5
f 105/6/5 172/6/5 173/6/5
f 132/6/5 49/6/5 174/6/5
f 132/6/5 174/6/5 171/6/5
f 173/1/5 174/1/5 170/1/5
f 173/1/5 170/1/5 168/1/5
f 103/2/5 152/2/5 175/2/5
f 103/2/5 175/2/5 176/2/5
f 152/4/5 122/4/5 177/4/5
f 152/4/5 177/4/5 18/4/5
f 23/4/5 154/4/5 130/4/5
f 23/4/5 130/4/5 178/4/5
f 154/2/5 51/2/5 179/2/5
f 154/2/5 179/2/5 180/2/5
f 176/2/5 181/2/5 182/2/5
f 176/2/5 182/2/5 104/2/5
f 181/7/5 183/7/5 184/7/5
f 181/7/5 184/7/5 106/7/5
f 183/2/5 175/2/5 17/2/5
f 183/2/5 17/2/5 185/2/5
f 180/2/5 186/2/5 187/2/5
f 180/2/5 187/2/5 131/2/5
f 186/7/5 188/7/5 34/7/5
f 186/7/5 34/7/5 189/7/5
f 188/2/5 179/2/5 50/2/5
f 188/2/5 50/2/5 190/2/5
f 7/7/5 184/7/5 191/7/5
f 7/7/5 191/7/5 192/7/5
f 124/4/5 24/4/5 178/4/5
f 124/4/5 178/4/5 177/4/5
f 189/7/5 133/7/5 193/7/5
f 189/7/5 193/7/5 194/7/5
f 109/7/5 8/7/5 192/7/5
f 109/7/5 192/7/5 195/7/5
f 136/7/5 35/7/5 196/7/5
f 136/7/5 196/7/5 193/7/5
f 195/2/5 191/2/5 185/2/5
f 195/2/5 185/2/5 182/2/5
f 194/2/5 196/2/5 190/2/5
f 194/2/5 190/2/5 187/2/5
f 119/4/5 22/4/5 25/4/5
f 119/4/5 25/4/5 123/4/5
f 107/3/5 10/3/5 9/3/5
f 107/3/5 9/3/5 108/3/5
f 134/3/5 37/3/5 36/3/5
f 134/3/5 36/3/5 135/3/5
f 114/1/6 117/1/6 27/1/6
f 114/1/6 27/1/6 26/1/6
f 76/1/6 79/1/6 53/1/6
f 76/1/6 53/1/6 52/1/6
f 92/1/6 98/1/6 197/1/6
f 92/1/6 197/1/6 115/1/6
f 29/1/6 198/1/6 42/1/6
f 29/1/6 42/1/6 38/1/6
f 116/1/6 197/1/6 198/1/6
f 116/1/6 198/1/6 28/1/6
f 72/2/6 199/2/6 97/2/6
f 72/2/6 97/2/6 96/2/6
f 44/2/6 43/2/6 200/2/6
f 44/2/6 200/2/6 68/2/6
f 199/2/6 75/2/6 84/2/6
f 199/2/6 84/2/6 77/2/6
f 55/2/6 60/2/6 69/2/6
f 55/2/6 69/2/6 200/2/6
f 86/1/6 89/1/6 2/1/6
f 86/1/6 2/1/6 1/1/6
f 137/1/6 140/1/6 63/1/6
f 137/1/6 63/1/6 62/1/6
f 89/2/6 91/2/6 5/2/6
f 89/2/6 5/2/6 2/2/6
f 140/2/6 142/2/6 66/2/6
f 140/2/6 66/2/6 63/2/6
f 110/4/6 113/4/6 12/4/6
f 110/4/6 12/4/6 11/4/6
f 125/4/6 128/4/6 31/4/6
f 125/4/6 31/4/6 30/4/6
